<?xml version="1.0" standalone="no"?>
<!DOCTYPE svg PUBLIC "-//W3C//DTD SVG 20010904//EN"
 "http://www.w3.org/TR/2001/REC-SVG-20010904/DTD/svg10.dtd">
<svg version="1.0" xmlns="http://www.w3.org/2000/svg"
 width="34.000000pt" height="34.000000pt" viewBox="0 0 34.000000 34.000000"
 preserveAspectRatio="xMidYMid meet">

<g transform="translate(0.000000,34.000000) scale(0.100000,-0.100000)"
fill="black" stroke="white">
<path d="M0 170 l0 -170 170 0 170 0 0 170 0 170 -170 0 -170 0 0 -170z m160
26 c0 -48 10 -79 24 -77 22 3 36 0 36 -9 0 -5 -20 -10 -44 -10 l-43 0 -2 73
c-1 60 1 74 14 74 11 0 15 -12 15 -51z"/>
</g>
</svg>
